# Blender v2.79 (sub 0) OBJ File: 'axis test.blend'
# www.blender.org
mtllib axis test.mtl
o Cylinder.002
v -1.000000 0.100000 0.000000
v 1.000000 0.100000 -0.000000
v -1.000000 0.098079 -0.019509
v 1.000000 0.098079 -0.019509
v -1.000000 0.092388 -0.038268
v 1.000000 0.092388 -0.038268
v -1.000000 0.083147 -0.055557
v 1.000000 0.083147 -0.055557
v -1.000000 0.070711 -0.070711
v 1.000000 0.070711 -0.070711
v -1.000000 0.055557 -0.083147
v 1.000000 0.055557 -0.083147
v -1.000000 0.038268 -0.092388
v 1.000000 0.038268 -0.092388
v -1.000000 0.019509 -0.098079
v 1.000000 0.019509 -0.098079
v -1.000000 0.000000 -0.100000
v 1.000000 -0.000000 -0.100000
v -1.000000 -0.019509 -0.098079
v 1.000000 -0.019509 -0.098079
v -1.000000 -0.038268 -0.092388
v 1.000000 -0.038268 -0.092388
v -1.000000 -0.055557 -0.083147
v 1.000000 -0.055557 -0.083147
v -1.000000 -0.070711 -0.070711
v 1.000000 -0.070711 -0.070711
v -1.000000 -0.083147 -0.055557
v 1.000000 -0.083147 -0.055557
v -1.000000 -0.092388 -0.038268
v 1.000000 -0.092388 -0.038268
v -1.000000 -0.098079 -0.019509
v 1.000000 -0.098079 -0.019509
v -1.000000 -0.100000 0.000000
v 1.000000 -0.100000 -0.000000
v -1.000000 -0.098078 0.019509
v 1.000000 -0.098079 0.019509
v -1.000000 -0.092388 0.038268
v 1.000000 -0.092388 0.038268
v -1.000000 -0.083147 0.055557
v 1.000000 -0.083147 0.055557
v -1.000000 -0.070711 0.070711
v 1.000000 -0.070711 0.070711
v -1.000000 -0.055557 0.083147
v 1.000000 -0.055557 0.083147
v -1.000000 -0.038268 0.092388
v 1.000000 -0.038268 0.092388
v -1.000000 -0.019509 0.098079
v 1.000000 -0.019509 0.098079
v -1.000000 0.000000 0.100000
v 1.000000 0.000000 0.100000
v -1.000000 0.019509 0.098079
v 1.000000 0.019509 0.098078
v -1.000000 0.038268 0.092388
v 1.000000 0.038268 0.092388
v -1.000000 0.055557 0.083147
v 1.000000 0.055557 0.083147
v -1.000000 0.070711 0.070711
v 1.000000 0.070711 0.070711
v -1.000000 0.083147 0.055557
v 1.000000 0.083147 0.055557
v -1.000000 0.092388 0.038268
v 1.000000 0.092388 0.038268
v -1.000000 0.098079 0.019509
v 1.000000 0.098079 0.019509
v -0.000000 0.100000 -1.000000
v 0.000000 0.100000 1.000000
v 0.019509 0.098079 -1.000000
v 0.019509 0.098079 1.000000
v 0.038268 0.092388 -1.000000
v 0.038268 0.092388 1.000000
v 0.055557 0.083147 -1.000000
v 0.055557 0.083147 1.000000
v 0.070711 0.070711 -1.000000
v 0.070711 0.070711 1.000000
v 0.083147 0.055557 -1.000000
v 0.083147 0.055557 1.000000
v 0.092388 0.038268 -1.000000
v 0.092388 0.038268 1.000000
v 0.098079 0.019509 -1.000000
v 0.098079 0.019509 1.000000
v 0.100000 0.000000 -1.000000
v 0.100000 -0.000000 1.000000
v 0.098079 -0.019509 -1.000000
v 0.098079 -0.019509 1.000000
v 0.092388 -0.038268 -1.000000
v 0.092388 -0.038268 1.000000
v 0.083147 -0.055557 -1.000000
v 0.083147 -0.055557 1.000000
v 0.070711 -0.070711 -1.000000
v 0.070711 -0.070711 1.000000
v 0.055557 -0.083147 -1.000000
v 0.055557 -0.083147 1.000000
v 0.038268 -0.092388 -1.000000
v 0.038268 -0.092388 1.000000
v 0.019509 -0.098079 -1.000000
v 0.019509 -0.098079 1.000000
v -0.000000 -0.100000 -1.000000
v -0.000000 -0.100000 1.000000
v -0.019509 -0.098078 -1.000000
v -0.019509 -0.098079 1.000000
v -0.038268 -0.092388 -1.000000
v -0.038268 -0.092388 1.000000
v -0.055557 -0.083147 -1.000000
v -0.055557 -0.083147 1.000000
v -0.070711 -0.070711 -1.000000
v -0.070711 -0.070711 1.000000
v -0.083147 -0.055557 -1.000000
v -0.083147 -0.055557 1.000000
v -0.092388 -0.038268 -1.000000
v -0.092388 -0.038268 1.000000
v -0.098079 -0.019509 -1.000000
v -0.098079 -0.019509 1.000000
v -0.100000 0.000000 -1.000000
v -0.100000 0.000000 1.000000
v -0.098079 0.019509 -1.000000
v -0.098079 0.019509 1.000000
v -0.092388 0.038268 -1.000000
v -0.092388 0.038268 1.000000
v -0.083147 0.055557 -1.000000
v -0.083147 0.055557 1.000000
v -0.070711 0.070711 -1.000000
v -0.070711 0.070711 1.000000
v -0.055557 0.083147 -1.000000
v -0.055557 0.083147 1.000000
v -0.038268 0.092388 -1.000000
v -0.038268 0.092388 1.000000
v -0.019509 0.098079 -1.000000
v -0.019509 0.098079 1.000000
v 0.000000 -1.000000 -0.100000
v 0.000000 1.000000 -0.100000
v 0.019509 -1.000000 -0.098079
v 0.019509 1.000000 -0.098079
v 0.038268 -1.000000 -0.092388
v 0.038268 1.000000 -0.092388
v 0.055557 -1.000000 -0.083147
v 0.055557 1.000000 -0.083147
v 0.070711 -1.000000 -0.070711
v 0.070711 1.000000 -0.070711
v 0.083147 -1.000000 -0.055557
v 0.083147 1.000000 -0.055557
v 0.092388 -1.000000 -0.038268
v 0.092388 1.000000 -0.038268
v 0.098079 -1.000000 -0.019509
v 0.098079 1.000000 -0.019509
v 0.100000 -1.000000 -0.000000
v 0.100000 1.000000 -0.000000
v 0.098079 -1.000000 0.019509
v 0.098079 1.000000 0.019509
v 0.092388 -1.000000 0.038268
v 0.092388 1.000000 0.038268
v 0.083147 -1.000000 0.055557
v 0.083147 1.000000 0.055557
v 0.070711 -1.000000 0.070711
v 0.070711 1.000000 0.070711
v 0.055557 -1.000000 0.083147
v 0.055557 1.000000 0.083147
v 0.038268 -1.000000 0.092388
v 0.038268 1.000000 0.092388
v 0.019509 -1.000000 0.098079
v 0.019509 1.000000 0.098079
v -0.000000 -1.000000 0.100000
v -0.000000 1.000000 0.100000
v -0.019509 -1.000000 0.098079
v -0.019509 1.000000 0.098079
v -0.038268 -1.000000 0.092388
v -0.038268 1.000000 0.092388
v -0.055557 -1.000000 0.083147
v -0.055557 1.000000 0.083147
v -0.070711 -1.000000 0.070711
v -0.070711 1.000000 0.070711
v -0.083147 -1.000000 0.055557
v -0.083147 1.000000 0.055557
v -0.092388 -1.000000 0.038268
v -0.092388 1.000000 0.038268
v -0.098079 -1.000000 0.019509
v -0.098079 1.000000 0.019509
v -0.100000 -1.000000 -0.000000
v -0.100000 1.000000 -0.000000
v -0.098079 -1.000000 -0.019509
v -0.098079 1.000000 -0.019509
v -0.092388 -1.000000 -0.038268
v -0.092388 1.000000 -0.038268
v -0.083147 -1.000000 -0.055557
v -0.083147 1.000000 -0.055557
v -0.070711 -1.000000 -0.070711
v -0.070711 1.000000 -0.070711
v -0.055557 -1.000000 -0.083147
v -0.055557 1.000000 -0.083147
v -0.038268 -1.000000 -0.092388
v -0.038268 1.000000 -0.092388
v -0.019509 -1.000000 -0.098079
v -0.019509 1.000000 -0.098079
vn 0.0000 0.9952 -0.0980
vn 0.0000 0.9569 -0.2903
vn 0.0000 0.8819 -0.4714
vn 0.0000 0.7730 -0.6344
vn -0.0000 0.6344 -0.7730
vn -0.0000 0.4714 -0.8819
vn -0.0000 0.2903 -0.9569
vn -0.0000 0.0980 -0.9952
vn -0.0000 -0.0980 -0.9952
vn -0.0000 -0.2903 -0.9569
vn -0.0000 -0.4714 -0.8819
vn -0.0000 -0.6344 -0.7730
vn -0.0000 -0.7730 -0.6344
vn -0.0000 -0.8819 -0.4714
vn -0.0000 -0.9569 -0.2903
vn -0.0000 -0.9952 -0.0980
vn -0.0000 -0.9952 0.0980
vn -0.0000 -0.9569 0.2903
vn -0.0000 -0.8819 0.4714
vn -0.0000 -0.7730 0.6344
vn 0.0000 -0.6344 0.7730
vn 0.0000 -0.4714 0.8819
vn 0.0000 -0.2903 0.9569
vn 0.0000 -0.0980 0.9952
vn 0.0000 0.0980 0.9952
vn 0.0000 0.2903 0.9569
vn 0.0000 0.4714 0.8819
vn 0.0000 0.6344 0.7730
vn 0.0000 0.7730 0.6344
vn 0.0000 0.8819 0.4714
vn 0.0000 0.9569 0.2903
vn 0.0000 0.9952 0.0980
vn 0.0980 0.9952 0.0000
vn 0.2903 0.9569 0.0000
vn 0.4714 0.8819 0.0000
vn 0.6344 0.7730 0.0000
vn 0.7730 0.6344 0.0000
vn 0.8819 0.4714 0.0000
vn 0.9569 0.2903 0.0000
vn 0.9952 0.0980 0.0000
vn 0.9952 -0.0980 -0.0000
vn 0.9569 -0.2903 -0.0000
vn 0.8819 -0.4714 -0.0000
vn 0.7730 -0.6344 -0.0000
vn 0.6344 -0.7730 -0.0000
vn 0.4714 -0.8819 -0.0000
vn 0.2903 -0.9569 -0.0000
vn 0.0980 -0.9952 -0.0000
vn -0.0980 -0.9952 -0.0000
vn -0.2903 -0.9569 -0.0000
vn -0.4714 -0.8819 -0.0000
vn -0.6344 -0.7730 -0.0000
vn -0.7730 -0.6344 -0.0000
vn -0.8819 -0.4714 -0.0000
vn -0.9569 -0.2903 -0.0000
vn -0.9952 -0.0980 -0.0000
vn -0.9952 0.0980 0.0000
vn -0.9569 0.2903 0.0000
vn -0.8819 0.4714 0.0000
vn -0.7730 0.6344 0.0000
vn -0.6344 0.7730 0.0000
vn -0.4714 0.8819 0.0000
vn -0.2903 0.9569 0.0000
vn -0.0980 0.9952 0.0000
vn 0.0980 -0.0000 -0.9952
vn 0.2903 0.0000 -0.9569
vn 0.4714 0.0000 -0.8819
vn 0.6344 0.0000 -0.7730
vn 0.7730 0.0000 -0.6344
vn 0.8819 0.0000 -0.4714
vn 0.9569 0.0000 -0.2903
vn 0.9952 0.0000 -0.0980
vn 0.9952 0.0000 0.0980
vn 0.9569 0.0000 0.2903
vn 0.8819 0.0000 0.4714
vn 0.7730 0.0000 0.6344
vn 0.6344 0.0000 0.7730
vn 0.4714 0.0000 0.8819
vn 0.2903 -0.0000 0.9569
vn 0.0980 -0.0000 0.9952
vn -0.0980 0.0000 0.9952
vn -0.2903 0.0000 0.9569
vn -0.4714 0.0000 0.8819
vn -0.6344 0.0000 0.7730
vn -0.7730 -0.0000 0.6344
vn -0.8819 0.0000 0.4714
vn -0.9569 0.0000 0.2903
vn -0.9952 -0.0000 0.0980
vn -0.9952 0.0000 -0.0980
vn -0.9569 0.0000 -0.2903
vn -0.8819 0.0000 -0.4714
vn -0.7730 0.0000 -0.6344
vn -0.6344 -0.0000 -0.7730
vn -0.4714 0.0000 -0.8819
vn -0.2903 0.0000 -0.9569
vn -0.0980 0.0000 -0.9952
vn 1.0000 0.0000 0.0000
vn 0.0000 0.0000 -1.0000
vn 0.0000 1.0000 -0.0000
vn -1.0000 -0.0000 0.0000
vn -0.0000 0.0000 1.0000
vn 0.0000 -1.0000 0.0000
usemtl Material.002
s off
f 1//1 2//1 4//1 3//1
f 3//2 4//2 6//2 5//2
f 5//3 6//3 8//3 7//3
f 7//4 8//4 10//4 9//4
f 9//5 10//5 12//5 11//5
f 11//6 12//6 14//6 13//6
f 13//7 14//7 16//7 15//7
f 15//8 16//8 18//8 17//8
f 17//9 18//9 20//9 19//9
f 19//10 20//10 22//10 21//10
f 21//11 22//11 24//11 23//11
f 23//12 24//12 26//12 25//12
f 25//13 26//13 28//13 27//13
f 27//14 28//14 30//14 29//14
f 29//15 30//15 32//15 31//15
f 31//16 32//16 34//16 33//16
f 33//17 34//17 36//17 35//17
f 35//18 36//18 38//18 37//18
f 37//19 38//19 40//19 39//19
f 39//20 40//20 42//20 41//20
f 41//21 42//21 44//21 43//21
f 43//22 44//22 46//22 45//22
f 45//23 46//23 48//23 47//23
f 47//24 48//24 50//24 49//24
f 49//25 50//25 52//25 51//25
f 51//26 52//26 54//26 53//26
f 53//27 54//27 56//27 55//27
f 55//28 56//28 58//28 57//28
f 57//29 58//29 60//29 59//29
f 59//30 60//30 62//30 61//30
f 61//31 62//31 64//31 63//31
f 63//32 64//32 2//32 1//32
usemtl Material.001
f 65//33 66//33 68//33 67//33
f 67//34 68//34 70//34 69//34
f 69//35 70//35 72//35 71//35
f 71//36 72//36 74//36 73//36
f 73//37 74//37 76//37 75//37
f 75//38 76//38 78//38 77//38
f 77//39 78//39 80//39 79//39
f 79//40 80//40 82//40 81//40
f 81//41 82//41 84//41 83//41
f 83//42 84//42 86//42 85//42
f 85//43 86//43 88//43 87//43
f 87//44 88//44 90//44 89//44
f 89//45 90//45 92//45 91//45
f 91//46 92//46 94//46 93//46
f 93//47 94//47 96//47 95//47
f 95//48 96//48 98//48 97//48
f 97//49 98//49 100//49 99//49
f 99//50 100//50 102//50 101//50
f 101//51 102//51 104//51 103//51
f 103//52 104//52 106//52 105//52
f 105//53 106//53 108//53 107//53
f 107//54 108//54 110//54 109//54
f 109//55 110//55 112//55 111//55
f 111//56 112//56 114//56 113//56
f 113//57 114//57 116//57 115//57
f 115//58 116//58 118//58 117//58
f 117//59 118//59 120//59 119//59
f 119//60 120//60 122//60 121//60
f 121//61 122//61 124//61 123//61
f 123//62 124//62 126//62 125//62
f 125//63 126//63 128//63 127//63
f 127//64 128//64 66//64 65//64
usemtl Material.003
f 129//65 130//65 132//65 131//65
f 131//66 132//66 134//66 133//66
f 133//67 134//67 136//67 135//67
f 135//68 136//68 138//68 137//68
f 137//69 138//69 140//69 139//69
f 139//70 140//70 142//70 141//70
f 141//71 142//71 144//71 143//71
f 143//72 144//72 146//72 145//72
f 145//73 146//73 148//73 147//73
f 147//74 148//74 150//74 149//74
f 149//75 150//75 152//75 151//75
f 151//76 152//76 154//76 153//76
f 153//77 154//77 156//77 155//77
f 155//78 156//78 158//78 157//78
f 157//79 158//79 160//79 159//79
f 159//80 160//80 162//80 161//80
f 161//81 162//81 164//81 163//81
f 163//82 164//82 166//82 165//82
f 165//83 166//83 168//83 167//83
f 167//84 168//84 170//84 169//84
f 169//85 170//85 172//85 171//85
f 171//86 172//86 174//86 173//86
f 173//87 174//87 176//87 175//87
f 175//88 176//88 178//88 177//88
f 177//89 178//89 180//89 179//89
f 179//90 180//90 182//90 181//90
f 181//91 182//91 184//91 183//91
f 183//92 184//92 186//92 185//92
f 185//93 186//93 188//93 187//93
f 187//94 188//94 190//94 189//94
f 189//95 190//95 192//95 191//95
f 191//96 192//96 130//96 129//96
usemtl Material.004
f 4//97 2//97 64//97 62//97 60//97 58//97 56//97 54//97 52//97 50//97 48//97 46//97 44//97 42//97 40//97 38//97 36//97 34//97 32//97 30//97 28//97 26//97 24//97 22//97 20//97 18//97 16//97 14//97 12//97 10//97 8//97 6//97
f 65//98 67//98 69//98 71//98 73//98 75//98 77//98 79//98 81//98 83//98 85//98 87//98 89//98 91//98 93//98 95//98 97//98 99//98 101//98 103//98 105//98 107//98 109//98 111//98 113//98 115//98 117//98 119//98 121//98 123//98 125//98 127//98
f 132//99 130//99 192//99 190//99 188//99 186//99 184//99 182//99 180//99 178//99 176//99 174//99 172//99 170//99 168//99 166//99 164//99 162//99 160//99 158//99 156//99 154//99 152//99 150//99 148//99 146//99 144//99 142//99 140//99 138//99 136//99 134//99
usemtl Material.005
f 1//100 3//100 5//100 7//100 9//100 11//100 13//100 15//100 17//100 19//100 21//100 23//100 25//100 27//100 29//100 31//100 33//100 35//100 37//100 39//100 41//100 43//100 45//100 47//100 49//100 51//100 53//100 55//100 57//100 59//100 61//100 63//100
f 68//101 66//101 128//101 126//101 124//101 122//101 120//101 118//101 116//101 114//101 112//101 110//101 108//101 106//101 104//101 102//101 100//101 98//101 96//101 94//101 92//101 90//101 88//101 86//101 84//101 82//101 80//101 78//101 76//101 74//101 72//101 70//101
f 129//102 131//102 133//102 135//102 137//102 139//102 141//102 143//102 145//102 147//102 149//102 151//102 153//102 155//102 157//102 159//102 161//102 163//102 165//102 167//102 169//102 171//102 173//102 175//102 177//102 179//102 181//102 183//102 185//102 187//102 189//102 191//102
